<?xml version="1.0" standalone="no"?>
<!DOCTYPE svg PUBLIC "-//W3C//DTD SVG 20010904//EN"
 "http://www.w3.org/TR/2001/REC-SVG-20010904/DTD/svg10.dtd">
<svg version="1.0" xmlns="http://www.w3.org/2000/svg"
 width="16.000000pt" height="16.000000pt" viewBox="0 0 16.000000 16.000000"
 preserveAspectRatio="xMidYMid meet">
<metadata>
Created by potrace 1.11, written by Peter Selinger 2001-2013
</metadata>
<g transform="translate(0.000000,16.000000) scale(0.005000,-0.005000)"
fill="#000000" stroke="none">
<path d="M1440 3160 c-19 -4 -59 -11 -89 -14 -29 -4 -57 -8 -61 -11 -4 -2 -20
-6 -36 -9 -35 -6 -136 -38 -179 -57 -200 -85 -339 -171 -463 -286 -23 -21 -49
-45 -59 -55 -28 -25 -85 -89 -115 -128 -71 -94 -98 -131 -98 -136 0 -3 -8 -18
-19 -32 -22 -32 -88 -161 -93 -182 -2 -8 -6 -17 -10 -20 -6 -5 -55 -136 -64
-172 -2 -10 -6 -27 -9 -38 -3 -11 -7 -29 -10 -41 -2 -11 -7 -30 -11 -42 -3
-11 -8 -34 -9 -51 -2 -17 -6 -47 -11 -66 -13 -57 -8 -475 6 -475 2 0 12 -65
13 -87 1 -10 5 -18 10 -18 4 0 6 -4 3 -9 -6 -10 51 -200 66 -218 6 -7 7 -13 4
-13 -4 0 -1 -12 7 -27 8 -16 32 -62 53 -103 94 -189 212 -336 405 -505 30 -27
116 -88 174 -122 81 -50 292 -141 362 -158 65 -16 163 -37 193 -41 61 -10 327
-12 372 -4 24 4 61 10 83 13 86 12 230 51 250 68 5 5 15 9 23 9 19 0 225 100
234 114 5 6 8 7 8 1 0 -7 3 -7 8 0 4 6 27 23 52 40 158 104 342 293 430 440
13 22 26 42 29 45 24 22 138 268 155 335 2 6 6 24 10 40 4 17 10 37 13 45 8
21 18 69 28 135 2 11 4 20 6 20 1 0 2 14 3 30 1 17 5 35 8 41 8 12 4 370 -4
399 -8 31 -22 118 -21 138 0 9 -4 17 -8 17 -5 0 -9 9 -9 21 0 68 -119 349
-200 471 -22 32 -40 63 -40 68 0 5 -3 10 -7 12 -5 2 -33 35 -65 73 -94 116
-233 241 -358 321 -99 63 -302 157 -364 168 -14 3 -30 7 -35 10 -9 6 -82 22
-146 32 -16 3 -41 8 -55 11 -42 8 -323 11 -360 3z m267 -543 c16 -18 34 -44
40 -58 7 -17 11 -188 11 -515 0 -535 1 -522 -58 -579 -21 -20 -42 -29 -77 -32
-61 -6 -109 24 -138 84 -19 40 -20 61 -20 535 1 431 3 497 17 523 50 95 158
115 225 42z m-506 -304 c35 -21 69 -81 69 -123 0 -45 -26 -95 -66 -125 -128
-97 -218 -248 -251 -415 -7 -37 -7 -158 0 -216 16 -134 115 -311 226 -403 86
-72 211 -130 319 -149 76 -14 219 -7 287 13 186 54 342 183 424 350 96 199 89
439 -20 626 -36 62 -50 79 -146 174 -46 45 -84 90 -84 101 -1 10 -3 33 -4 49
-4 63 46 120 117 133 57 11 94 -3 162 -60 146 -123 253 -291 308 -483 19 -69
22 -103 22 -245 0 -139 -3 -177 -22 -243 -86 -310 -315 -559 -608 -661 -388
-136 -792 -24 -1065 294 -94 110 -175 288 -204 445 -25 140 -12 323 32 460 45
142 148 302 261 406 103 95 170 115 243 72z"/>
</g>
</svg>
